HIERARCHY
ROOT Hips
{
	OFFSET 0.000000 0.000000 0.000000
	CHANNELS 6 Xposition Yposition Zposition Xrotation Yrotation Zrotation
	JOINT LeftUpLeg_virtual
	{
		OFFSET 0.000000 0.000000 0.000000
		CHANNELS 3 Xrotation Yrotation Zrotation
		JOINT LeftUpLeg
		{
			OFFSET 13.026900 -6.336304 -1.092800
			CHANNELS 3 Xrotation Yrotation Zrotation
			JOINT LeftLeg
			{
				OFFSET 0.524474 -46.096886 9.782700
				CHANNELS 3 Xrotation Yrotation Zrotation
				JOINT LeftFoot
				{
					OFFSET -0.524474 -53.427422 -12.948200
					CHANNELS 3 Xrotation Yrotation Zrotation
					JOINT LeftToeBase
					{
						OFFSET 0.192200 -14.009700 16.364100
						CHANNELS 3 Xrotation Yrotation Zrotation
						JOINT LeftToe_End
						{
							OFFSET -1.784700 -0.561700 9.474800
							CHANNELS 3 Xrotation Yrotation Zrotation
							End Site
							{
								OFFSET 0 0 0
							}
						}
					}
				}
			}
		}
	}
	JOINT RightUpLeg_virtual
	{
		OFFSET 0.000000 0.000000 0.000000
		CHANNELS 3 Xrotation Yrotation Zrotation
		JOINT RightUpLeg
		{
			OFFSET -12.883000 -6.336304 -1.092800
			CHANNELS 3 Xrotation Yrotation Zrotation
			JOINT RightLeg
			{
				OFFSET -0.524587 -46.096825 9.782800
				CHANNELS 3 Xrotation Yrotation Zrotation
				JOINT RightFoot
				{
					OFFSET 0.524587 -53.427383 -12.948300
					CHANNELS 3 Xrotation Yrotation Zrotation
					JOINT RightToeBase
					{
						OFFSET -0.192200 -14.009700 16.364100
						CHANNELS 3 Xrotation Yrotation Zrotation
						JOINT RightToe_End
						{
							OFFSET 1.784700 -0.561700 9.474800
							CHANNELS 3 Xrotation Yrotation Zrotation
							End Site
							{
								OFFSET 0 0 0
							}
						}
					}
				}
			}
		}
	}
	JOINT Spine_virtual
	{
		OFFSET 0.000000 0.000000 0.000000
		CHANNELS 3 Xrotation Yrotation Zrotation
		JOINT Spine
		{
			OFFSET 0.072000 7.257294 -0.789700
			CHANNELS 3 Xrotation Yrotation Zrotation
			JOINT Spine1
			{
				OFFSET 0.000000 12.508769 -0.658067
				CHANNELS 3 Xrotation Yrotation Zrotation
				JOINT Spine1_split
				{
					OFFSET 0.000000 12.508769 -0.658067
					CHANNELS 3 Xrotation Yrotation Zrotation
					JOINT Spine2
					{
						OFFSET 0.000000 12.508769 -0.658067
						CHANNELS 3 Xrotation Yrotation Zrotation
						JOINT Neck_virtual
						{
							OFFSET 0.000000 0.000000 0.000000
							CHANNELS 3 Xrotation Yrotation Zrotation
							JOINT Neck
							{
								OFFSET 0.000000 14.033295 7.520400
								CHANNELS 3 Xrotation Yrotation Zrotation
								JOINT Head
								{
									OFFSET 0.000000 8.198502 5.703100
									CHANNELS 3 Xrotation Yrotation Zrotation
									JOINT HeadTop_End
									{
										OFFSET 0.000000 17.760803 13.332701
										CHANNELS 3 Xrotation Yrotation Zrotation
										End Site
										{
											OFFSET 0 0 0
										}
									}
								}
							}
						}
						JOINT LeftShoulder_virtual
						{
							OFFSET 0.000000 0.000000 0.000000
							CHANNELS 3 Xrotation Yrotation Zrotation
							JOINT LeftShoulder
							{
								OFFSET 6.292450 5.785301 -0.669000
								CHANNELS 3 Xrotation Yrotation Zrotation
								JOINT LeftShoulder_split
								{
									OFFSET 6.292450 5.785301 -0.669000
									CHANNELS 3 Xrotation Yrotation Zrotation
									JOINT LeftArm
									{
										OFFSET 13.907140 -6.093903 1.965100
										CHANNELS 3 Xrotation Yrotation Zrotation
										JOINT LeftForeArm
										{
											OFFSET 34.140198 0.000000 0.000000
											CHANNELS 3 Xrotation Yrotation Zrotation
											JOINT LeftHand
											{
												OFFSET 40.960209 0.000000 0.000000
												CHANNELS 3 Xrotation Yrotation Zrotation
												End Site
												{
													OFFSET 0 0 0
												}
											}
										}
									}
								}
							}
						}
						JOINT RightShoulder_virtual
						{
							OFFSET 0.000000 0.000000 0.000000
							CHANNELS 3 Xrotation Yrotation Zrotation
							JOINT RightShoulder
							{
								OFFSET -6.292450 5.785301 -0.669000
								CHANNELS 3 Xrotation Yrotation Zrotation
								JOINT RightShoulder_split
								{
									OFFSET -6.292450 5.785301 -0.669000
									CHANNELS 3 Xrotation Yrotation Zrotation
									JOINT RightArm
									{
										OFFSET -13.907140 -6.093903 1.965100
										CHANNELS 3 Xrotation Yrotation Zrotation
										JOINT RightForeArm
										{
											OFFSET -34.140198 0.000000 0.000000
											CHANNELS 3 Xrotation Yrotation Zrotation
											JOINT RightHand
											{
												OFFSET -40.960209 0.000000 0.000000
												CHANNELS 3 Xrotation Yrotation Zrotation
												End Site
												{
													OFFSET 0 0 0
												}
											}
										}
									}
								}
							}
						}
					}
				}
			}
		}
	}
}
MOTION
Frames: 10
Frame Time: 0.03333333
2.946238 118.666245 -4.630629 0.000000 0.000000 0.000000 -0.704782 -0.047277 -3.022540 -35.928120 -0.461499 3.636923 51.383499 -0.517362 -0.022037 24.978374 -1.518632 11.025184 -14.046641 -0.942938 0.774706 0.000000 0.000000 0.000000 -1.101610 2.542952 -3.213902 -22.215463 -14.120272 3.965814 32.033946 4.967239 -1.880811 17.008119 -1.810997 -4.497419 -17.302749 0.869481 2.424677 0.000000 0.000000 0.000000 -4.576310 4.440214 -2.103278 7.617508 1.127975 -1.011866 -2.578028 -0.618589 1.953034 -0.129044 1.225336 -0.703547 0.000000 0.000000 0.000000 -3.079140 -0.185359 1.776358 -4.270940 -2.338327 0.833843 2.393609 0.756960 3.870092 0.000000 0.000000 0.000000 -2.911578 -0.096291 2.068637 0.295063 3.214585 -0.889277 0.635924 -1.354948 0.195133 2.769078 4.505206 -71.111511 23.603336 -13.392713 1.168481 0.000000 0.000000 0.000000 -2.138434 -0.136689 1.922494 1.595054 5.381883 4.954563 -4.897092 1.351495 -1.758435 -7.770065 8.079817 77.807343 11.987063 16.086482 -3.140635 0.000000 0.000000 0.000000 
2.483365 118.803154 -1.482134 0.000000 0.000000 0.000000 -0.924515 -0.869017 -2.941488 -38.099396 0.401068 3.267431 44.905936 0.146055 -0.116519 25.559073 -1.363214 12.497946 -13.666636 -0.896682 0.980690 0.000000 0.000000 0.000000 -0.515797 1.802824 -3.356018 -21.931060 -13.795305 3.754470 32.852155 5.282540 -1.801623 18.608386 -1.444682 -4.991530 -19.280203 0.638288 2.686503 0.000000 0.000000 0.000000 -3.826354 3.749416 -2.785882 7.548911 1.358222 -0.805782 -2.575433 -0.577794 1.923053 -0.029492 0.762447 -0.523092 0.000000 0.000000 0.000000 -2.969387 -0.152467 1.749863 -4.176955 -2.131975 0.511894 2.746884 0.799506 3.863111 0.000000 0.000000 0.000000 -3.106509 -0.043389 2.039626 0.383614 3.629143 -1.131091 -0.059155 -1.714601 -0.200415 2.953323 4.625131 -70.755569 23.767563 -14.189775 1.411573 0.000000 0.000000 0.000000 -2.265640 -0.104366 1.940756 1.535696 5.459848 4.605731 -4.493551 1.608243 -1.643680 -8.607649 8.425524 77.525973 12.042553 15.713330 -3.340667 0.000000 0.000000 0.000000 
2.297966 119.273232 2.360275 0.000000 0.000000 0.000000 -0.950790 -1.552450 -2.749156 -40.333367 0.857887 2.250355 34.780232 0.392648 0.587560 28.667202 -1.439873 11.242158 -14.111348 -0.770654 0.850747 0.000000 0.000000 0.000000 -0.233039 0.618889 -3.281655 -20.354633 -14.042401 3.070386 33.698702 5.715685 -1.782907 18.954055 -0.119971 -6.134419 -22.471017 0.558792 2.837063 0.000000 0.000000 0.000000 -2.850184 2.778804 -3.358682 7.543739 1.668708 -0.217757 -2.577709 -0.500094 1.914910 0.465918 0.330497 -0.261300 0.000000 0.000000 0.000000 -2.897962 -0.110206 1.744301 -4.277902 -1.621170 -0.146616 3.075703 1.101962 3.372326 0.000000 0.000000 0.000000 -3.305942 0.041047 1.990672 0.487866 4.730047 -2.121308 -1.133108 -2.357429 -0.632676 3.477788 5.213240 -70.846526 24.353357 -14.966584 1.994281 0.000000 0.000000 0.000000 -2.308483 -0.054298 1.859481 1.538368 5.496365 3.952661 -4.151174 1.713829 -1.199066 -9.926883 9.568185 76.692998 11.905697 15.483276 -3.343603 0.000000 0.000000 0.000000 
2.499136 119.555641 6.317505 0.000000 0.000000 0.000000 -0.875106 -1.853381 -2.358298 -42.372991 1.076710 1.012558 23.815440 0.258779 1.716147 34.000579 -1.723144 7.647093 -16.455498 -0.551701 0.663136 0.000000 0.000000 0.000000 -0.111759 -0.685656 -2.970871 -17.619839 -14.923880 1.968149 33.691530 6.314671 -1.749444 17.495921 1.799970 -7.747591 -25.336962 0.718321 2.850105 0.000000 0.000000 0.000000 -2.083400 1.764501 -3.736163 7.584385 1.949910 0.584763 -2.558208 -0.440021 1.966874 0.981561 0.037003 0.076573 0.000000 0.000000 0.000000 -2.887310 -0.106865 1.826040 -4.570468 -0.863807 -0.962729 3.390175 1.578880 2.554264 0.000000 0.000000 0.000000 -3.468522 0.094699 1.992135 0.631159 6.380762 -3.644268 -2.195635 -3.035517 -0.818820 4.443913 6.070509 -71.250238 25.161826 -15.413990 2.745909 0.000000 0.000000 0.000000 -2.317235 -0.050896 1.747576 1.620233 5.438234 3.036038 -3.911631 1.635227 -0.688720 -11.273704 11.008735 75.758286 11.588703 15.875347 -3.158182 0.000000 0.000000 0.000000 
2.896460 119.296074 10.335890 0.000000 0.000000 0.000000 -0.875598 -1.988820 -1.908348 -44.764667 1.521630 -0.132915 15.016775 -0.196057 2.830983 40.314420 -2.389766 3.007463 -19.869685 -0.224304 0.631868 0.000000 0.000000 0.000000 0.096425 -1.758313 -2.571415 -13.454358 -16.404497 0.887147 32.265636 7.038037 -1.737631 13.984050 3.929807 -9.218098 -27.209353 1.035220 2.724867 0.000000 0.000000 0.000000 -1.439344 0.931920 -3.900678 7.594026 2.119221 1.337645 -2.466034 -0.429757 2.104357 1.110215 0.038738 0.311083 0.000000 0.000000 0.000000 -2.932826 -0.175978 2.050859 -5.026945 0.002154 -1.697461 3.691558 2.107562 1.645217 0.000000 0.000000 0.000000 -3.576109 0.086736 2.101796 0.847315 8.256486 -5.344414 -2.853377 -3.494831 -0.730378 5.600030 6.822644 -71.807623 25.885329 -15.378405 3.406586 0.000000 0.000000 0.000000 -2.323593 -0.120677 1.695137 1.756477 5.295006 1.999168 -3.635038 1.648612 -0.266811 -12.315473 12.226228 75.238973 11.115629 17.070974 -2.801460 0.000000 0.000000 0.000000 
3.375246 118.010498 14.468132 0.000000 0.000000 0.000000 -0.933891 -2.365671 -1.476414 -47.026949 2.744992 -1.040593 9.916958 -0.401824 3.509108 44.980129 -2.767239 -0.404177 -22.261492 0.130951 0.591102 0.000000 0.000000 0.000000 0.217794 -2.062530 -2.275383 -8.043239 -18.141039 0.217010 29.710418 7.752197 -1.745051 8.865009 5.713840 -9.768407 -27.689918 1.382864 2.501629 0.000000 0.000000 0.000000 -1.144362 0.266988 -3.781755 7.484924 2.108660 1.739219 -2.307034 -0.486222 2.304420 0.924132 0.221123 0.369541 0.000000 0.000000 0.000000 -3.010409 -0.318773 2.383708 -5.613628 0.835517 -2.152557 3.998187 2.602735 0.914700 0.000000 0.000000 0.000000 -3.612968 0.014169 2.326231 1.105760 9.865824 -6.802194 -3.064860 -3.806624 -0.517403 6.665382 7.210930 -72.409171 26.205672 -14.665461 3.755422 0.000000 0.000000 0.000000 -2.332933 -0.255519 1.769710 1.906734 5.124240 0.954256 -3.196875 1.656132 0.037717 -12.749417 12.797645 75.547329 10.564804 18.696360 -2.335457 0.000000 0.000000 0.000000 
3.571457 115.778450 18.853004 0.000000 0.000000 0.000000 -1.107613 -3.077868 -1.062525 -48.519857 5.103508 -1.461725 8.496068 -0.186055 3.718925 45.857825 -2.365519 -1.146425 -22.929493 0.369531 0.860405 0.000000 0.000000 0.000000 0.162508 -1.836391 -1.990213 -1.886470 -19.527108 0.321195 26.812676 8.122538 -1.738736 2.810087 6.510802 -9.383921 -27.688735 1.597141 2.311630 0.000000 0.000000 0.000000 -1.349064 0.019872 -3.501515 7.185895 1.940138 1.668275 -2.094642 -0.587338 2.525735 0.760171 0.639466 0.175888 0.000000 0.000000 0.000000 -3.022391 -0.482559 2.751662 -6.239699 1.565220 -2.227776 4.319012 2.990657 0.552660 0.000000 0.000000 0.000000 -3.558005 -0.080054 2.610867 1.360688 10.876400 -7.752078 -2.844609 -4.020174 -0.112531 7.414852 7.115003 -73.017919 26.094400 -13.368965 3.803188 0.000000 0.000000 0.000000 -2.339023 -0.409491 1.932585 1.979991 4.928653 0.029409 -2.734672 1.573811 0.186080 -12.542609 12.509780 76.644421 10.019229 19.944164 -1.885412 0.000000 0.000000 0.000000 
3.538630 113.266174 23.108425 0.000000 0.000000 0.000000 -1.420368 -3.816139 -0.804630 -48.976145 8.399218 -1.509808 10.489635 -0.418908 3.453201 43.563647 -2.047272 0.737286 -22.445566 0.435746 1.546520 0.000000 0.000000 0.000000 -0.259794 -1.300130 -1.732042 4.222729 -19.881788 1.266242 24.398298 7.851058 -1.944541 -3.665598 6.162717 -8.684617 -27.808581 1.576472 2.196778 0.000000 0.000000 0.000000 -1.720981 0.287511 -3.141008 6.711498 1.665544 1.210622 -1.823235 -0.653081 2.725028 0.652113 1.071618 -0.138140 0.000000 0.000000 0.000000 -2.901946 -0.586323 3.053499 -6.783492 2.093574 -1.933931 4.639278 3.171430 0.608169 0.000000 0.000000 0.000000 -3.390940 -0.129611 2.867719 1.586420 11.084845 -8.062305 -2.432431 -4.004283 0.232464 7.548337 6.557703 -73.731011 25.736394 -11.866038 3.662899 0.000000 0.000000 0.000000 -2.217032 -0.492029 2.128614 1.950715 4.761181 -0.707934 -2.340732 1.419041 0.414194 -11.682397 11.626779 78.231259 9.587712 20.208320 -1.579416 0.000000 0.000000 0.000000 
3.430304 111.002274 27.133421 0.000000 0.000000 0.000000 -1.824218 -4.456853 -0.650665 -48.708579 11.964316 -1.285933 14.976470 -1.850759 2.729611 40.099228 -2.851333 4.258282 -22.364995 0.295725 2.555429 0.000000 0.000000 0.000000 -0.891695 -0.663585 -1.440667 9.327580 -18.675090 2.578457 23.313392 6.768779 -2.276228 -9.292331 4.869079 -8.773479 -27.631139 1.469189 2.092818 0.000000 0.000000 0.000000 -2.180766 1.089042 -2.661775 6.031949 1.319409 0.459358 -1.492992 -0.638292 2.899740 0.636690 1.142710 -0.389643 0.000000 0.000000 0.000000 -2.645371 -0.585981 3.227454 -7.153622 2.404016 -1.423893 4.925602 3.152361 1.003317 0.000000 0.000000 0.000000 -3.112236 -0.101762 3.038863 1.751841 10.600752 -7.798123 -1.964110 -3.810093 0.397803 7.137580 5.912959 -74.650928 25.390093 -10.641191 3.565217 0.000000 0.000000 0.000000 -1.914994 -0.467274 2.319302 1.857890 4.621808 -1.270130 -2.143616 1.172022 0.658288 -10.211032 10.408477 79.874431 9.405321 19.310586 -1.490605 0.000000 0.000000 0.000000 
3.276473 109.494766 30.881536 0.000000 0.000000 0.000000 -2.290636 -4.596598 -0.470170 -48.167368 15.203180 -0.960067 20.630049 -4.273973 1.957554 37.372049 -4.730623 8.368209 -24.041854 -0.063350 3.805049 0.000000 0.000000 0.000000 -1.526028 0.044385 -0.941183 12.566475 -15.955805 3.601073 23.537479 5.235422 -2.709080 -12.471218 3.315932 -9.324876 -28.501097 1.450958 1.711197 0.000000 0.000000 0.000000 -2.561198 2.239402 -2.027268 5.153064 0.960779 -0.515149 -1.129587 -0.547538 3.055851 0.583831 1.207329 -0.454384 0.000000 0.000000 0.000000 -2.260076 -0.486913 3.306173 -7.301416 2.559684 -0.908130 5.055419 2.994278 1.519214 0.000000 0.000000 0.000000 -2.772994 -0.010331 3.149729 1.837975 9.786858 -7.189568 -1.433539 -3.648395 0.547797 6.417666 5.628529 -75.671686 25.198711 -10.034177 3.690350 0.000000 0.000000 0.000000 -1.486891 -0.354702 2.486174 1.747102 4.510761 -1.613856 -2.180843 0.895775 0.761269 -8.264143 9.170356 81.119753 9.519300 17.764571 -1.557225 0.000000 0.000000 0.000000 
